<svg xmlns="http://www.w3.org/2000/svg" width="1363" height="658" preserveAspectRatio="none"><g mask="url('#SvgjsMask1435')" fill="none"><path fill="rgba(4, 21, 38, 1)" d="M0 0h1363v658H0z"/><path d="m994.15 512.55 146.777-10.123-70.046-107.862z" fill="rgba(28, 83, 142, 0.4)" class="triangle-float1"/><path d="M925.35 508.9a163.34 163.34 0 1 0 326.68 0 163.34 163.34 0 1 0-326.68 0z" fill="rgba(28, 83, 142, 0.4)" class="triangle-float2"/><path d="M967.01 284.41a195.38 195.38 0 1 0 390.76 0 195.38 195.38 0 1 0-390.76 0z" fill="rgba(28, 83, 142, 0.4)" class="triangle-float1"/><path d="M29.21 641.51a117.55 117.55 0 1 0 235.1 0 117.55 117.55 0 1 0-235.1 0zM419.213 249.868 254.344 273.04l188.04 141.699zM816.572 360.118 648.358 345.4l153.498 182.931z" fill="rgba(28, 83, 142, 0.4)" class="triangle-float2"/><path d="M805.865 180.333 986.199 125.2 931.066-55.135 750.73-.002z" fill="rgba(28, 83, 142, 0.4)" class="triangle-float3"/><path d="M385.65 410.53a148.93 148.93 0 1 0 297.86 0 148.93 148.93 0 1 0-297.86 0zM984.833 73.126l-92.919-43.329-43.329 92.92 92.92 43.328z" fill="rgba(28, 83, 142, 0.4)" class="triangle-float2"/><path d="M281.56 396.6a112.65 112.65 0 1 0 225.3 0 112.65 112.65 0 1 0-225.3 0zM1043.883 337.321l-110.58 83.328 83.328 110.58 110.58-83.328z" fill="rgba(28, 83, 142, 0.4)" class="triangle-float1"/><path d="M419.546 86.193 376.72-31.82 304.72 51.005z" fill="rgba(28, 83, 142, 0.4)" class="triangle-float3"/></g><defs><style>@keyframes float1{0%{transform:translate(0)}50%{transform:translate(-10px)}to{transform:translate(0)}}.triangle-float1{animation:float1 5s infinite}@keyframes float2{0%{transform:translate(0)}50%{transform:translate(-5px,-5px)}to{transform:translate(0)}}.triangle-float2{animation:float2 4s infinite}@keyframes float3{0%{transform:translate(0)}50%{transform:translateY(-10px)}to{transform:translate(0)}}.triangle-float3{animation:float3 6s infinite}</style><mask id="SvgjsMask1435"><path fill="#fff" d="M0 0h1363v658H0z"/></mask></defs></svg>